<?xml version="1.0" encoding="UTF-8" standalone="no"?>
<!DOCTYPE svg PUBLIC "-//W3C//DTD SVG 1.1//EN"
 "http://www.w3.org/Graphics/SVG/1.1/DTD/svg11.dtd">
<!-- Generated by graphviz version 2.26.3 (20100126.1600)
 -->
<!-- Title: G Pages: 1 -->
<svg width="620pt" height="356pt"
 viewBox="0.00 0.00 620.00 356.00" xmlns="http://www.w3.org/2000/svg" xmlns:xlink="http://www.w3.org/1999/xlink">
<g id="graph1" class="graph" transform="scale(1 1) rotate(0) translate(4 352)">
<title>G</title>
<polygon fill="white" stroke="white" points="-4,5 -4,-352 617,-352 617,5 -4,5"/>
<g id="graph2" class="cluster"><title>cluster_Rhumsaa</title>
<polyline fill="none" stroke="gray" points="348,-8 592,-8 "/>
<path fill="none" stroke="gray" d="M592,-8C598,-8 604,-14 604,-20"/>
<polyline fill="none" stroke="gray" points="604,-20 604,-328 "/>
<path fill="none" stroke="gray" d="M604,-328C604,-334 598,-340 592,-340"/>
<polyline fill="none" stroke="gray" points="592,-340 348,-340 "/>
<path fill="none" stroke="gray" d="M348,-340C342,-340 336,-334 336,-328"/>
<polyline fill="none" stroke="gray" points="336,-328 336,-20 "/>
<path fill="none" stroke="gray" d="M336,-20C336,-14 342,-8 348,-8"/>
<text text-anchor="middle" x="470" y="-326.1" font-family="Times Roman,serif" font-size="11.00" fill="gray">Rhumsaa</text>
</g>
<g id="graph3" class="cluster"><title>cluster_Rhumsaa\Uuid</title>
<polyline fill="none" stroke="gray" points="356,-16 584,-16 "/>
<path fill="none" stroke="gray" d="M584,-16C590,-16 596,-22 596,-28"/>
<polyline fill="none" stroke="gray" points="596,-28 596,-298 "/>
<path fill="none" stroke="gray" d="M596,-298C596,-304 590,-310 584,-310"/>
<polyline fill="none" stroke="gray" points="584,-310 356,-310 "/>
<path fill="none" stroke="gray" d="M356,-310C350,-310 344,-304 344,-298"/>
<polyline fill="none" stroke="gray" points="344,-298 344,-28 "/>
<path fill="none" stroke="gray" d="M344,-28C344,-22 350,-16 356,-16"/>
<text text-anchor="middle" x="470" y="-296.1" font-family="Times Roman,serif" font-size="11.00" fill="gray">Uuid</text>
</g>
<g id="graph4" class="cluster"><title>cluster_Rhumsaa\Uuid\Doctrine</title>
<polyline fill="none" stroke="gray" points="438,-206 502,-206 "/>
<path fill="none" stroke="gray" d="M502,-206C508,-206 514,-212 514,-218"/>
<polyline fill="none" stroke="gray" points="514,-218 514,-268 "/>
<path fill="none" stroke="gray" d="M514,-268C514,-274 508,-280 502,-280"/>
<polyline fill="none" stroke="gray" points="502,-280 438,-280 "/>
<path fill="none" stroke="gray" d="M438,-280C432,-280 426,-274 426,-268"/>
<polyline fill="none" stroke="gray" points="426,-268 426,-218 "/>
<path fill="none" stroke="gray" d="M426,-218C426,-212 432,-206 438,-206"/>
<text text-anchor="middle" x="470" y="-266.1" font-family="Times Roman,serif" font-size="11.00" fill="gray">Doctrine</text>
</g>
<g id="graph5" class="cluster"><title>cluster_Rhumsaa\Uuid\Exception</title>
<polyline fill="none" stroke="gray" points="364,-70 576,-70 "/>
<path fill="none" stroke="gray" d="M576,-70C582,-70 588,-76 588,-82"/>
<polyline fill="none" stroke="gray" points="588,-82 588,-186 "/>
<path fill="none" stroke="gray" d="M588,-186C588,-192 582,-198 576,-198"/>
<polyline fill="none" stroke="gray" points="576,-198 364,-198 "/>
<path fill="none" stroke="gray" d="M364,-198C358,-198 352,-192 352,-186"/>
<polyline fill="none" stroke="gray" points="352,-186 352,-82 "/>
<path fill="none" stroke="gray" d="M352,-82C352,-76 358,-70 364,-70"/>
<text text-anchor="middle" x="470" y="-184.1" font-family="Times Roman,serif" font-size="11.00" fill="gray">Exception</text>
</g>
<!-- \\Rhumsaa\\Uuid\\Doctrine\\UuidType -->
<g id="node4" class="node"><title>\\Rhumsaa\\Uuid\\Doctrine\\UuidType</title>
<a xlink:href="Doctrine.UuidType.html" xlink:title="UuidType" target="_parent">
<polygon fill="none" stroke="black" points="505,-250 435,-250 435,-214 505,-214 505,-250"/>
<text text-anchor="middle" x="470" y="-229.1" font-family="Courier,monospace" font-size="11.00">UuidType</text>
</a>
</g>
<!-- \\Doctrine\\DBAL\\Types\\Type -->
<g id="node15" class="node"><title>\\Doctrine\\DBAL\\Types\\Type</title>
<ellipse fill="none" stroke="black" cx="144" cy="-232" rx="143.043" ry="18.3848"/>
<text text-anchor="middle" x="144" y="-228.4" font-family="Times Roman,serif" font-size="14.00" fill="gray">\Doctrine\DBAL\Types\Type</text>
</g>
<!-- \\Rhumsaa\\Uuid\\Doctrine\\UuidType&#45;&gt;\\Doctrine\\DBAL\\Types\\Type -->
<g id="edge12" class="edge"><title>\\Rhumsaa\\Uuid\\Doctrine\\UuidType&#45;&gt;\\Doctrine\\DBAL\\Types\\Type</title>
<path fill="none" stroke="black" d="M434.492,-232C401.152,-232 348.893,-232 297.836,-232"/>
<polygon fill="none" stroke="black" points="297.647,-228.5 287.647,-232 297.647,-235.5 297.647,-228.5"/>
</g>
<!-- \\Rhumsaa\\Uuid\\Exception\\UnsatisfiedDependencyException -->
<g id="node6" class="node"><title>\\Rhumsaa\\Uuid\\Exception\\UnsatisfiedDependencyException</title>
<a xlink:href="Exception.UnsatisfiedDependencyException.html" xlink:title="UnsatisfiedDependencyException" target="_parent">
<polygon fill="none" stroke="black" points="579,-168 361,-168 361,-132 579,-132 579,-168"/>
<text text-anchor="middle" x="470" y="-147.1" font-family="Courier,monospace" font-size="11.00">UnsatisfiedDependencyException</text>
</a>
</g>
<!-- \\RuntimeException -->
<g id="node12" class="node"><title>\\RuntimeException</title>
<ellipse fill="none" stroke="black" cx="144" cy="-123" rx="103.238" ry="18.3848"/>
<text text-anchor="middle" x="144" y="-119.4" font-family="Times Roman,serif" font-size="14.00" fill="gray">\RuntimeException</text>
</g>
<!-- \\Rhumsaa\\Uuid\\Exception\\UnsatisfiedDependencyException&#45;&gt;\\RuntimeException -->
<g id="edge8" class="edge"><title>\\Rhumsaa\\Uuid\\Exception\\UnsatisfiedDependencyException&#45;&gt;\\RuntimeException</title>
<path fill="none" stroke="black" d="M360.086,-140.897C323.59,-137.874 283.109,-134.521 247.143,-131.543"/>
<polygon fill="none" stroke="black" points="247.38,-128.05 237.125,-130.713 246.802,-135.026 247.38,-128.05"/>
</g>
<!-- \\Rhumsaa\\Uuid\\Exception\\UnsupportedOperationException -->
<g id="node7" class="node"><title>\\Rhumsaa\\Uuid\\Exception\\UnsupportedOperationException</title>
<a xlink:href="Exception.UnsupportedOperationException.html" xlink:title="UnsupportedOperationException" target="_parent">
<polygon fill="none" stroke="black" points="576,-114 364,-114 364,-78 576,-78 576,-114"/>
<text text-anchor="middle" x="470" y="-93.1" font-family="Courier,monospace" font-size="11.00">UnsupportedOperationException</text>
</a>
</g>
<!-- \\Rhumsaa\\Uuid\\Exception\\UnsupportedOperationException&#45;&gt;\\RuntimeException -->
<g id="edge10" class="edge"><title>\\Rhumsaa\\Uuid\\Exception\\UnsupportedOperationException&#45;&gt;\\RuntimeException</title>
<path fill="none" stroke="black" d="M363.706,-104.803C326.427,-107.891 284.626,-111.353 247.573,-114.422"/>
<polygon fill="none" stroke="black" points="246.932,-110.963 237.255,-115.276 247.51,-117.939 246.932,-110.963"/>
</g>
<!-- \\Rhumsaa\\Uuid\\Uuid -->
<g id="node8" class="node"><title>\\Rhumsaa\\Uuid\\Uuid</title>
<a xlink:href="Uuid.html" xlink:title="«abstract»&lt;br/&gt;Uuid" target="_parent">
<polygon fill="none" stroke="black" points="512,-60 428,-60 428,-24 512,-24 512,-60"/>
<text text-anchor="start" x="436" y="-47.4333" font-family="Courier,monospace" font-size="11.00">«abstract»</text>
<text text-anchor="start" x="456" y="-34.2333" font-family="Courier,monospace" font-size="11.00">Uuid</text>
</a>
</g>
</g>
</svg>
